<?xml version="1.0" encoding="UTF-8"?>
<svg id="Ebene_2" data-name="Ebene 2" xmlns="http://www.w3.org/2000/svg" viewBox="0 0 47.91 40.71">
  <defs>
    <style>
      .cls-1 {
        fill: #ffb7ef;
      }
    </style>
  </defs>
  <g id="Ebene_1-2" data-name="Ebene 1">
    <path class="cls-1" d="M23.95,40.71c-.32,0-.63-.06-.92-.18-.29-.12-.56-.29-.78-.52L3.64,21.39C1.31,19.03,0,15.84,0,12.52S1.31,6.02,3.64,3.66C6,1.32,9.18,0,12.51,0s6.51,1.32,8.86,3.66l2.59,2.59,2.59-2.59c2.35-2.35,5.54-3.66,8.86-3.66s6.51,1.32,8.86,3.66c2.33,2.36,3.64,5.54,3.64,8.86s-1.31,6.5-3.64,8.86l-18.61,18.63c-.22,.22-.49,.4-.78,.52-.29,.12-.6,.18-.92,.18Z"/>
  </g>
</svg>