<svg width="49" height="42" viewBox="0 0 49 42" fill="none" xmlns="http://www.w3.org/2000/svg">
<rect width="49" height="42" fill="#1E1E1E"/>
<path d="M24.74 41.295C24.4248 41.2968 24.1123 41.2364 23.8205 41.1172C23.5287 40.998 23.2633 40.8224 23.0395 40.6005L4.4304 21.9674C2.09614 19.6087 0.786797 16.4243 0.786797 13.1059C0.786797 9.78742 2.09614 6.603 4.4304 4.24435C6.78292 1.89847 9.96963 0.581131 13.2919 0.581131C16.6142 0.581131 19.8009 1.89847 22.1534 4.24435L24.74 6.83095L27.3266 4.24435C29.6791 1.89847 32.8658 0.581131 36.1881 0.581131C39.5104 0.581131 42.6971 1.89847 45.0496 4.24435C47.3839 6.603 48.6932 9.78742 48.6932 13.1059C48.6932 16.4243 47.3839 19.6087 45.0496 21.9674L26.4404 40.6005C26.2167 40.8224 25.9513 40.998 25.6595 41.1172C25.3677 41.2364 25.0552 41.2968 24.74 41.295Z" fill="#FFB7EF"/>
</svg>
